#!OML:ASF E:\emotionWalksFemale\Project 1\Capture day 1\Session 1\Female1.ASF
:FULLY-SPECIFIED
:DEGREES
136
root 8.53286 15.1027 40.5127 181.452 -8.96928 -180.045
lowerback 5.82906 3.09083 2.50076
upperback -4.79077 4.25032 -0.452259
thorax -8.09176 1.87609 -2.40274
lowerneck -8.40832 13.4046 5.80393
upperneck 27.3809 15.9244 2.90048
head 10.3753 7.75307 1.82108
rclavicle -4.01918e-014 -1.46604e-014
rhumerus -47.3503 19.356 -102.259
rradius 32.7184
rwrist 12.536
rhand -5.41025 -55.7622
rfingers 7.12502
rthumb -159.601 -264.711
lclavicle -4.01918e-014 -1.46604e-014
lhumerus -43.8178 -4.47416 88.555
lradius 36.1592
lwrist -15.8506
lhand -7.36374 -32.4545
lfingers 7.12502
lthumb 18.521 -3.31615
rfemur -7.63542 15.2358 28.6681
rtibia 29.8581
rfoot -35.7041 -37.4092
rtoes 29.4918
lfemur -13.4314 -23.9484 -24.2651
ltibia 33.4692
lfoot -24.0463 7.43536
ltoes -43.3518
137
root 8.53151 15.1021 40.5102 181.291 -9.14743 -180.024
lowerback 5.95824 3.03828 2.5665
upperback -4.73195 4.19419 -0.448077
thorax -8.10266 1.84718 -2.43448
lowerneck -8.47036 13.3924 5.70768
upperneck 27.3893 15.908 2.96414
head 10.3739 7.74408 1.85812
rclavicle 4.56397e-014 -1.93815e-015
rhumerus -47.4016 19.4503 -102.331
rradius 32.737
rwrist 12.2914
rhand -5.57667 -55.697
rfingers 7.12502
rthumb -159.761 -264.663
lclavicle 4.56397e-014 -1.93815e-015
lhumerus -43.7905 -4.4727 88.5672
lradius 36.0658
lwrist -16.0713
lhand -7.73075 -32.0715
lfingers 7.12502
lthumb 18.1679 -2.9
rfemur -7.42344 15.0858 28.7573
rtibia 29.8524
rfoot -35.7799 -37.3209
rtoes 29.4634
lfemur -13.2565 -23.7588 -24.2996
ltibia 33.4787
lfoot -24.1022 7.02587
ltoes -42.8325
138
root 8.53174 15.1062 40.5087 181.543 -8.93001 -180.042
lowerback 5.71704 3.12415 2.52702
upperback -4.79502 4.29201 -0.462526
thorax -8.0259 1.89577 -2.42567
lowerneck -8.47468 13.3999 5.67258
upperneck 27.3714 15.9264 2.96785
head 10.3643 7.75071 1.86573
rclavicle 3.16875e-014 2.93207e-015
rhumerus -47.4794 19.5969 -102.454
rradius 32.8123
rwrist 11.8732
rhand -5.76809 -55.554
rfingers 7.12502
rthumb -159.945 -264.539
lclavicle 3.16875e-014 2.93207e-015
lhumerus -43.7826 -4.48961 88.5494
lradius 36.0716
lwrist -15.9885
lhand -7.56911 -31.8475
lfingers 7.12502
lthumb 18.3234 -2.69053
rfemur -7.7344 15.1033 28.628
rtibia 29.846
rfoot -35.3553 -37.2185
rtoes 28.7888
lfemur -13.5191 -23.6582 -24.2165
ltibia 33.4645
lfoot -24.0693 7.11378
ltoes -42.6319
139
root 8.53135 15.0995 40.504 181.373 -9.39371 -180.033
lowerback 5.78519 2.95358 2.57507
upperback -4.71599 4.07478 -0.447084
thorax -7.99032 1.79099 -2.41217
lowerneck -8.56159 13.397 5.63595
upperneck 27.4139 15.9402 2.91848
head 10.3973 7.74618 1.86488
rclavicle -2.23074e-014 1.39149e-015
rhumerus -47.4349 19.6171 -102.415
rradius 32.8542
rwrist 11.9183
rhand -5.66849 -55.5652
rfingers 7.12502
rthumb -159.849 -264.54
lclavicle -2.23074e-014 1.39149e-015
lhumerus -43.789 -4.50091 88.5526
lradius 36.1201
lwrist -15.8974
lhand -7.62237 -31.9295
lfingers 7.12502
lthumb 18.2722 -2.76775
rfemur -7.46415 15.115 28.7754
rtibia 29.8383
rfoot -35.8289 -37.6623
rtoes 29.3083
lfemur -13.3502 -23.7867 -24.2568
ltibia 33.4735
lfoot -24.0612 6.79444
ltoes -42.723
140
root 8.53089 15.1053 40.5059 181.584 -8.92213 -180.022
lowerback 5.66359 3.1141 2.54816
upperback -4.76466 4.28088 -0.441483
thorax -7.96262 1.89213 -2.40928
lowerneck -8.62845 13.3862 5.62668
upperneck 27.3878 15.9612 2.80388
head 10.4102 7.74356 1.83506
rclavicle -1.18712e-014 1.63997e-015
rhumerus -47.363 19.6729 -102.373
rradius 32.8176
rwrist 12.2105
rhand -5.52038 -55.4459
rfingers 7.12502
rthumb -159.707 -264.406
lclavicle -1.18712e-014 1.63997e-015
lhumerus -43.7404 -4.42987 88.5434
lradius 36.092
lwrist -16.0446
lhand -7.63261 -32.0871
lfingers 7.12502
lthumb 18.2623 -2.92434
rfemur -7.77775 14.9917 28.6221
rtibia 29.8358
rfoot -35.3674 -37.5177
rtoes 28.5461
lfemur -13.5628 -23.7021 -24.1929
ltibia 33.4685
lfoot -24.0817 7.27846
ltoes -43.1701
141
root 8.53249 15.1015 40.5008 181.387 -9.40838 -180.024
lowerback 5.73929 2.94111 2.54907
upperback -4.66809 4.05676 -0.429057
thorax -7.91584 1.78745 -2.37203
lowerneck -8.68674 13.4013 5.59335
upperneck 27.404 15.9818 2.82932
head 10.4216 7.75291 1.85594
rclavicle -4.02353e-014 -7.95139e-015
rhumerus -47.306 19.6012 -102.33
rradius 32.7262
rwrist 12.278
rhand -5.5433 -55.2571
rfingers 7.12502
rthumb -159.729 -264.219
lclavicle -4.02353e-014 -7.95139e-015
lhumerus -43.6862 -4.34715 88.4815
lradius 36.0855
lwrist -16.001
lhand -6.66417 -31.8935
lfingers 7.12502
lthumb 19.1938 -2.82063
rfemur -7.46536 14.9418 28.778
rtibia 29.8462
rfoot -36.0946 -37.7866
rtoes 28.9657
lfemur -13.3784 -23.7269 -24.2418
ltibia 33.4714
lfoot -24.0612 6.9999
ltoes -43.6661
142
root 8.53321 15.0998 40.4989 181.372 -9.4191 -180.036
lowerback 5.71237 2.94168 2.52246
upperback -4.631 4.05435 -0.444746
thorax -7.86086 1.78982 -2.3704
lowerneck -8.79584 13.421 5.61604
upperneck 27.4874 15.9926 2.85453
head 10.4733 7.7601 1.87552
rclavicle -3.03084e-014 7.95139e-016
rhumerus -47.285 19.5586 -102.357
rradius 32.6589
rwrist 12.39
rhand -5.89066 -55.0019
rfingers 7.12502
rthumb -160.063 -263.999
lclavicle -3.03084e-014 7.95139e-016
lhumerus -43.5971 -4.30289 88.4028
lradius 36.0377
lwrist -15.952
lhand -5.96947 -31.7338
lfingers 7.12502
lthumb 19.8617 -2.72865
rfemur -7.44246 15.0885 28.7822
rtibia 29.865
rfoot -36.164 -37.6768
rtoes 29.8449
lfemur -13.3221 -24.0164 -24.2789
ltibia 33.4537
lfoot -24.0623 7.19983
ltoes -43.1821
143
root 8.53242 15.0986 40.4953 181.369 -9.4194 -180.133
lowerback 5.66102 2.9377 2.42652
upperback -4.5938 4.0372 -0.477713
thorax -7.79567 1.78843 -2.34509
lowerneck -8.74365 13.4356 5.73045
upperneck 27.4048 16.0346 2.72149
head 10.4579 7.77898 1.81383
rclavicle -1.53748e-014 -5.56597e-015
rhumerus -47.4292 19.9257 -102.664
rradius 32.5908
rwrist 12.848
rhand -6.50735 -54.53
rfingers 7.12502
rthumb -160.655 -263.588
lclavicle -1.53748e-014 -5.56597e-015
lhumerus -43.5232 -4.21962 88.3265
lradius 35.9395
lwrist -16.0441
lhand -5.99986 -31.866
lfingers 7.12502
lthumb 19.8325 -2.85789
rfemur -7.39836 15.1857 28.6869
rtibia 29.8566
rfoot -36.182 -37.4006
rtoes 30.7131
lfemur -13.2507 -24.4638 -24.4344
ltibia 33.4676
lfoot -24.0957 7.47036
ltoes -42.843
144
root 8.5316 15.0995 40.4944 181.404 -9.44131 -180.132
lowerback 5.62368 2.92247 2.44624
upperback -4.60629 4.01603 -0.486003
thorax -7.78656 1.77637 -2.36039
lowerneck -8.64565 13.445 5.73162
upperneck 27.305 16.0525 2.73088
head 10.402 7.79299 1.8065
rclavicle -1.58593e-014 -3.32964e-015
rhumerus -47.4013 19.9984 -102.665
rradius 32.7343
rwrist 12.1765
rhand -6.09601 -54.8184
rfingers 7.12502
rthumb -160.26 -263.836
lclavicle -1.58593e-014 -3.32964e-015
lhumerus -43.5075 -4.11502 88.2499
lradius 35.9058
lwrist -16.0923
lhand -5.89541 -31.9728
lfingers 7.12502
lthumb 19.9329 -2.9751
rfemur -7.43839 15.0463 28.6674
rtibia 29.8591
rfoot -36.1497 -37.3941
rtoes 30.0864
lfemur -13.3188 -24.2172 -24.4041
ltibia 33.4737
lfoot -24.1135 7.19523
ltoes -43.2291
145
root 8.53165 15.098 40.4955 181.449 -9.45618 -180.077
lowerback 5.62821 2.93638 2.5108
upperback -4.63963 4.03965 -0.485245
thorax -7.81965 1.78251 -2.39967
lowerneck -8.65048 13.4291 5.69076
upperneck 27.3143 16.0224 2.78289
head 10.3967 7.78077 1.82605
rclavicle -1.58717e-014 -7.65321e-015
rhumerus -47.4702 20.0276 -102.741
rradius 32.7195
rwrist 12.3955
rhand -6.15938 -54.8683
rfingers 7.12502
rthumb -160.321 -263.892
lclavicle -1.58717e-014 -7.65321e-015
lhumerus -43.5079 -4.11909 88.2433
lradius 35.9241
lwrist -16.0982
lhand -6.32594 -32.2315
lfingers 7.12502
lthumb 19.519 -3.1913
rfemur -7.53297 14.9875 28.7061
rtibia 29.8895
rfoot -36.0992 -37.6237
rtoes 28.9943
lfemur -13.4 -23.8864 -24.2968
ltibia 33.4508
lfoot -24.1308 6.93849
ltoes -43.371
146
root 8.53234 15.0979 40.4949 181.442 -9.47822 -180.087
lowerback 5.68208 2.945 2.49642
upperback -4.65326 4.05076 -0.497763
thorax -7.86522 1.78706 -2.41003
lowerneck -8.6379 13.4103 5.74068
upperneck 27.3093 16.008 2.70261
head 10.405 7.76938 1.78992
rclavicle 5.25475e-014 6.60959e-015
rhumerus -47.3136 19.6852 -102.453
rradius 32.7524
rwrist 12.2597
rhand -5.53397 -55.1746
rfingers 7.12502
rthumb -159.72 -264.136
lclavicle 5.25475e-014 6.60959e-015
lhumerus -43.5738 -4.19228 88.2536
lradius 35.9744
lwrist -16.0633
lhand -6.82683 -32.4731
lfingers 7.12502
lthumb 19.0374 -3.38482
rfemur -7.52038 15.014 28.7115
rtibia 29.9145
rfoot -36.1803 -37.6257
rtoes 28.684
lfemur -13.373 -23.9466 -24.3112
ltibia 33.423
lfoot -24.0977 6.99642
ltoes -43.245
147
root 8.53358 15.1019 40.4933 181.447 -9.56698 -180.169
lowerback 5.70698 2.92203 2.40474
upperback -4.66007 4.01019 -0.525677
thorax -7.8933 1.77071 -2.38549
lowerneck -8.54444 13.3945 5.82194
upperneck 27.2132 16.0165 2.55699
head 10.3741 7.76784 1.72027
rclavicle 1.51822e-014 6.21202e-015
rhumerus -47.4944 19.8065 -102.664
rradius 32.6385
rwrist 13.3367
rhand -5.95471 -54.8078
rfingers 7.12502
rthumb -160.124 -263.811
lclavicle 1.51822e-014 6.21202e-015
lhumerus -43.6602 -4.21238 88.2268
lradius 35.9959
lwrist -16.0369
lhand -6.25805 -32.4403
lfingers 7.12502
lthumb 19.5843 -3.40668
rfemur -7.48396 14.9843 28.6474
rtibia 29.941
rfoot -36.4202 -37.6622
rtoes 28.981
lfemur -13.3538 -23.9556 -24.3892
ltibia 33.3953
lfoot -24.0346 6.98276
ltoes -43.365
148
root 8.53424 15.1026 40.4912 181.504 -9.7424 -180.233
lowerback 5.62616 2.87875 2.32406
upperback -4.66099 3.94051 -0.53935
thorax -7.85507 1.74129 -2.34186
lowerneck -8.50605 13.4028 5.82588
upperneck 27.1539 16.0359 2.54632
head 10.3467 7.77915 1.71296
rclavicle 5.01993e-014 9.93923e-016
rhumerus -47.6386 19.8995 -102.817
rradius 32.5824
rwrist 14.0184
rhand -6.39748 -54.5611
rfingers 7.12502
rthumb -160.55 -263.608
lclavicle 5.01993e-014 9.93923e-016
lhumerus -43.6452 -4.20907 88.2272
lradius 35.9487
lwrist -16.0287
lhand -5.58648 -32.3413
lfingers 7.12502
lthumb 20.2298 -3.37474
rfemur -7.51897 15.009 28.6006
rtibia 29.964
rfoot -36.6025 -37.7193
rtoes 29.8447
lfemur -13.4123 -23.9407 -24.4095
ltibia 33.371
lfoot -24.0019 6.76274
ltoes -43.0924
149
root 8.53366 15.1014 40.4917 181.565 -9.62566 -180.226
lowerback 5.58777 2.91845 2.30705
upperback -4.66736 3.99064 -0.536901
thorax -7.83817 1.76691 -2.33345
lowerneck -8.60676 13.4334 5.7967
upperneck 27.2227 16.0558 2.63946
head 10.3796 7.79452 1.76142
rclavicle -2.44629e-014 -1.93815e-015
rhumerus -47.5274 19.6796 -102.577
rradius 32.8916
rwrist 13.1345
rhand -5.70262 -54.7726
rfingers 7.12502
rthumb -159.882 -263.751
lclavicle -2.44629e-014 -1.93815e-015
lhumerus -43.5725 -4.2096 88.2245
lradius 35.9054
lwrist -16.0101
lhand -5.41794 -32.2149
lfingers 7.12502
lthumb 20.3918 -3.26559
rfemur -7.61434 15.0552 28.5663
rtibia 29.965
rfoot -36.435 -37.5369
rtoes 30.1392
lfemur -13.4784 -23.9708 -24.3855
ltibia 33.3776
lfoot -24.0216 6.75587
ltoes -42.5094
